<svg width="128" height="128" viewBox="0 0 64 64" fill="none" xmlns="http://www.w3.org/2000/svg">
  <circle cx="32" cy="32" r="30" fill="#e85d2a"/>
  <!-- Cat face in white -->
  <path d="M14 20 L20 33 C23.5 31.5 27.5 31 32 31 C36.5 31 40.5 31.5 44 33 L50 20 L46 37 C50 40.5 52 44.5 52 49 C52 57 43 60 32 60 C21 60 12 57 12 49 C12 44.5 14 40.5 18 37 Z" fill="#ffffff"/>
  <!-- Inner ear tint -->
  <path d="M17 24 L21 32 C19 30 17 28 17 24 Z" fill="#ffb499"/>
  <path d="M47 24 L43 32 C45 30 47 28 47 24 Z" fill="#ffb499"/>
  <!-- Eyes -->
  <ellipse cx="24" cy="43" rx="2.5" ry="3" fill="#e85d2a"/>
  <ellipse cx="40" cy="43" rx="2.5" ry="3" fill="#e85d2a"/>
  <!-- Nose & mouth -->
  <polygon points="32,48 30,45.5 34,45.5" fill="#e85d2a"/>
  <path d="M29.5 49.5 Q32 52 34.5 49.5" stroke="#e85d2a" stroke-width="1.6" stroke-linecap="round" fill="none"/>
  <!-- Whiskers -->
  <path d="M11 43 L19 44 M10 47 L19 46.5 M45 44 L53 43 M45 46.5 L54 47" stroke="#e85d2a" stroke-width="1.4" stroke-linecap="round"/>
</svg>
